PathFileType	3	(X/Y/Z)	C:\Users\koon_\Desktop\
DataRate	CameraRate	NumFrames	NumMarkers	Units	OrigDataRate	OrigDataStartFrame	OrigNumFrames
100.0	100.0	9	27	mm	100.0	2479	3966	
Frame#	Time	GM:LFHD			GM:RFHD			GM:LBHD			GM:RBHD			GM:C7			GM:T10			GM:CLAV			GM:STRN			GM:RBAK			GM:LSHO			GM:LUPA			GM:LELB			GM:LFRA			GM:LWRA			GM:LWRB			GM:LFIN			GM:RSHO			GM:RUPA			GM:RELB			GM:RFRA			GM:RWRA			GM:RWRB			GM:RFIN			GM:LASI			GM:RASI			GM:LPSI			GM:RPSI			
		X1	Y1	Z1	X2	Y2	Z2	X3	Y3	Z3	X4	Y4	Z4	X5	Y5	Z5	X6	Y6	Z6	X7	Y7	Z7	X8	Y8	Z8	X9	Y9	Z9	X10	Y10	Z10	X11	Y11	Z11	X12	Y12	Z12	X13	Y13	Z13	X14	Y14	Z14	X15	Y15	Z15	X16	Y16	Z16	X17	Y17	Z17	X18	Y18	Z18	X19	Y19	Z19	X20	Y20	Z20	X21	Y21	Z21	X22	Y22	Z22	X23	Y23	Z23	X24	Y24	Z24	X25	Y25	Z25	X26	Y26	Z26	X27	Y27	Z27	
2479	24.78	89.259377	1542.3669	-87.4478	-61.618328	1534.1482	-119.96444	118.31664	1538.84	-217.84837	-44.502483	1531.5323	-234.77763	69.542831	1368.7014	-286.77213	62.620312	1183.5557	-350.22266	20.372589	1298.724	-141.00507	7.8631287	1148.3877	-107.18999	-11.919053	1264.6482	-370.58472	191.90048	1337.8601	-153.07106	224.76563	1305.9637	-63.661255	192.03799	1216.0033	118.43489	149.73695	1355.3187	122.05341	131.6819	1417.7253	150.15535	88.293495	1396.3373	193.11076	89.446716	1498.735	173.86226	-125.8903	1347.5226	-260.89087	-256.68286	1195.5728	-210.16071	-304.3609	1109.1309	-178.56108	-253.46675	1199.6447	-181.00095	-185.69577	1274.0854	-134.38216	-182.74466	1249.683	-77.190475	-138.90929	1344.7184	-93.497139	147.123	832.12115	-198.88168	-130.1803	881.9444	-169.18364	63.276886	926.60669	-391.73422	-77.546219	921.45154	-377.71494
2480	24.79	89.445915	1543.0422	-89.964172	-61.535191	1534.1345	-121.17075	117.10632	1539.4021	-220.75052	-45.873615	1531.4552	-235.82805	67.449051	1369.0895	-288.87711	60.235737	1183.6711	-351.9628	20.94556	1298.5886	-142.6783	9.4526815	1148.4579	-108.38454	-15.188853	1264.9178	-371.35172	192.7453	1337.4181	-157.23495	226.80081	1302.2258	-68.763985	198.0097	1205.84	110.79105	155.13651	1344.4088	117.01598	136.47688	1406.3047	146.14551	93.477852	1383.8844	188.84834	93.937706	1486.7396	171.90138	-127.68957	1347.189	-259.30133	-256.40924	1194.1857	-206.09642	-303.03192	1107.5149	-173.90773	-252.76491	1198.3501	-177.26123	-185.45047	1273.3135	-131.96663	-180.60188	1248.7976	-74.697556	-137.74744	1344.3068	-91.788155	147.72487	832.13123	-200.757	-129.9119	882.00726	-168.67682	62.154327	926.63397	-392.9386	-78.525444	921.27686	-377.92551
2481	24.8	89.67012	1543.6748	-92.445709	-61.929935	1534.2432	-121.58438	115.93929	1539.9568	-223.15128	-47.195328	1531.3982	-236.68051	65.40609	1369.5487	-290.86917	57.73864	1183.8553	-353.72717	21.734247	1298.4805	-143.92024	11.043441	1148.5283	-109.58004	-18.56741	1265.2407	-371.94064	193.55885	1337.1274	-161.28406	229.11351	1298.1348	-73.954811	204.29276	1194.989	102.59752	160.67256	1332.9333	111.51333	141.79947	1394.2405	141.81046	99.233322	1370.5833	184.43033	98.643059	1473.8779	169.81837	-129.38403	1346.901	-257.61197	-255.57178	1192.7001	-201.96831	-301.53683	1105.8951	-169.34019	-251.72612	1196.9227	-173.33681	-184.46294	1272.6317	-129.39091	-178.17905	1247.8918	-72.099846	-136.38989	1343.7139	-89.806137	148.23975	832.25519	-202.56581	-129.55214	882.04047	-168.18262	61.001892	926.72833	-394.21078	-79.475952	921.13495	-378.14331
2482	24.81	89.953072	1544.2976	-94.874634	-61.999474	1534.3206	-122.27684	114.66944	1540.5122	-226.08438	-48.411766	1531.3644	-237.63878	63.216335	1370.027	-292.87231	55.237865	1184.1309	-355.44852	22.441269	1298.5579	-145.06946	12.395958	1148.6116	-109.37231	-22.028774	1265.6274	-372.26584	194.34102	1336.806	-165.18329	231.76889	1293.7538	-79.312233	210.95134	1183.609	93.656174	166.62886	1321.2762	105.06885	147.44133	1381.5229	137.27344	105.64984	1356.4192	179.7321	103.69181	1460.2318	167.60797	-131.04146	1346.5892	-255.74919	-256.12805	1191.8135	-198.30031	-300.00314	1104.2089	-164.70912	-250.51141	1195.7478	-169.37077	-183.02599	1271.6178	-126.35137	-175.68111	1246.8766	-69.516075	-134.81926	1343.047	-87.689484	148.79672	832.49451	-204.45486	-129.17439	882.01971	-167.82605	59.848103	926.81409	-395.4465	-80.408798	921.01508	-378.37878
2483	24.82	90.2808	1544.9032	-97.218605	-61.941177	1534.5247	-122.79768	113.48064	1540.9716	-228.67163	-49.715374	1531.4316	-238.42451	60.987148	1370.5168	-294.62234	52.723053	1184.399	-357.14307	23.168516	1298.7272	-146.06888	13.849045	1149.0447	-108.44832	-25.463329	1265.9928	-372.56436	195.06696	1336.4385	-169.1788	234.58774	1289.2665	-84.906052	218.04541	1171.9041	83.922501	172.22722	1308.762	98.928596	153.49211	1368.2496	132.1167	112.41663	1341.8516	174.83058	109.04907	1445.9568	165.06863	-132.70628	1346.2234	-253.61526	-256.83185	1190.7233	-194.49001	-298.29669	1102.6532	-160.20837	-249.53532	1194.3694	-165.41945	-181.627	1270.7583	-123.49976	-172.8493	1245.6851	-66.720901	-133.12697	1342.4343	-85.569923	149.42787	832.93304	-206.24194	-129.00047	882.03595	-167.18336	58.646362	926.89624	-396.62479	-81.274651	920.92517	-378.54224
2484	24.83	90.627296	1545.4052	-99.495026	-61.538433	1534.7852	-123.73871	112.33946	1541.3323	-231.18188	-50.897015	1531.5498	-239.03598	58.676815	1371.0533	-296.44522	50.14357	1184.7719	-358.86844	23.761398	1298.8546	-147.13425	15.262034	1149.125	-109.85179	-29.023897	1266.3995	-372.71716	195.53026	1336.2423	-172.92554	237.50467	1284.915	-90.736885	225.59589	1160.0381	73.374046	178.82124	1295.8904	91.284225	159.93677	1354.7389	126.37958	120.03435	1326.8326	169.57109	114.58982	1431.1859	162.12651	-134.22371	1345.8833	-251.59732	-256.06619	1189.4559	-190.23503	-296.59406	1101.146	-155.70349	-248.30197	1193.2335	-161.41351	-180.11971	1269.8782	-120.48145	-169.87595	1244.5917	-63.87291	-131.321	1341.7429	-83.297775	149.98283	833.45947	-207.93935	-126.29759	881.56561	-168.48596	57.613522	926.99371	-397.90604	-82.103867	920.79218	-378.77844
2485	24.84	91.082001	1545.9573	-101.71629	-61.68898	1535.1948	-123.79548	111.52036	1541.594	-233.57082	-52.171871	1531.7706	-239.51434	56.260029	1371.6079	-298.00854	47.41737	1185.2272	-360.48529	24.378895	1299.0181	-148.22363	16.661877	1149.1945	-111.22755	-32.619694	1266.7667	-372.81302	195.98792	1335.8464	-176.72868	240.38182	1280.6067	-96.779251	233.48947	1148.1443	61.955452	185.48737	1283.0255	83.572899	166.59029	1340.8977	120.06258	128.62688	1311.4501	163.60048	120.41339	1415.9537	158.81883	-135.5845	1345.6816	-249.80684	-255.47459	1188.4613	-186.26138	-294.84164	1099.6503	-151.11842	-246.86281	1191.9834	-157.38725	-178.56729	1269.0814	-117.56223	-166.90549	1243.6195	-61.230698	-129.39317	1341.0787	-81.180145	150.50984	834.1875	-209.4621	-125.98738	881.55505	-168.00186	56.602306	926.97455	-399.04141	-82.903015	920.61493	-378.90558
2486	24.85	91.549873	1546.4371	-103.84416	-61.323059	1535.66	-124.07042	110.37828	1541.8214	-235.98894	-53.383728	1532.0804	-239.78375	53.804901	1372.2062	-299.41321	44.65918	1185.5952	-362.02408	24.950804	1299.192	-149.16112	18.016283	1149.2527	-112.52731	-36.127151	1267.1323	-372.7807	197.17584	1335.5846	-180.4552	243.25095	1276.4583	-103.20992	241.88728	1136.5375	49.50639	192.74168	1270.1396	75.232925	173.54248	1327.0651	113.11243	137.38173	1295.8823	157.33243	126.41297	1400.4298	154.96335	-136.97749	1345.4097	-247.83246	-254.43164	1187.3097	-182.22325	-292.9498	1098.2797	-146.72185	-245.56863	1190.9827	-153.39629	-176.85573	1268.1819	-114.70456	-163.89204	1242.6427	-58.721886	-127.31172	1340.3618	-79.156425	151.04611	834.90601	-211.08403	-125.68779	881.56952	-167.48151	55.655949	927.06586	-400.19321	-83.648079	920.37701	-378.84369
2487	24.86	92.063034	1546.8348	-105.93857	-61.041508	1536.2053	-124.20213	108.89398	1542.0127	-238.36052	-54.575684	1532.424	-240.03111	51.414658	1372.7316	-300.78021	41.879189	1185.9958	-363.47018	25.428331	1299.3832	-150.01964	19.13892	1149.3356	-113.80782	-39.679836	1267.5199	-372.59888	197.93462	1335.2867	-184.14641	246.24783	1272.2754	-109.97612	250.83379	1125.3154	36.297623	200.07327	1257.6433	65.778053	180.6264	1313.3573	105.39003	147.01839	1280.1499	149.80157	132.43016	1384.8229	151.0002	-138.4588	1345.2136	-245.87444	-253.45036	1186.3629	-178.05983	-290.93478	1096.9709	-142.21506	-244.23943	1190.0096	-149.27318	-175.15848	1267.411	-111.98814	-160.95699	1241.7852	-56.350761	-125.1819	1339.7937	-77.108261	151.54727	835.65826	-212.61008	-125.20792	881.50464	-167.19121	54.803982	927.1203	-401.34665	-84.42099	920.08429	-378.67221
